<svg xmlns="http://www.w3.org/2000/svg" xmlns:xlink="http://www.w3.org/1999/xlink" width="1920" zoomAndPan="magnify" viewBox="0 0 1440 809.999993" height="1080" preserveAspectRatio="xMidYMid meet" version="1.0"><defs><clipPath id="fbbcd9b10f"><path d="M 416.183594 332 L 454 332 L 454 506 L 416.183594 506 Z M 416.183594 332 " clip-rule="nonzero"/></clipPath><clipPath id="7f112fa5e1"><path d="M 986 332 L 1023.542969 332 L 1023.542969 506 L 986 506 Z M 986 332 " clip-rule="nonzero"/></clipPath></defs><path fill="#000000" d="M 493.582031 351.359375 L 469.484375 351.359375 L 469.484375 487 L 489.910156 487 C 499.015625 487 507.589844 490.523438 514.054688 496.925781 L 525.59375 508.355469 C 537.347656 520 552.9375 526.414062 569.488281 526.414062 L 736.425781 526.414062 C 742.8125 526.414062 748.007812 521.226562 748.007812 514.851562 C 748.007812 508.476562 742.8125 503.289062 736.425781 503.289062 L 645.171875 503.289062 C 640.664062 503.289062 637.011719 499.644531 637.011719 495.144531 C 637.011719 490.644531 640.664062 487 645.171875 487 L 783.050781 487 C 790.898438 487 797.285156 480.625 797.285156 472.789062 C 797.285156 464.953125 790.898438 458.578125 783.050781 458.578125 L 660.488281 458.578125 C 655.980469 458.578125 652.328125 454.933594 652.328125 450.429688 C 652.328125 445.929688 655.980469 442.285156 660.488281 442.285156 L 808.390625 442.285156 C 819.160156 442.285156 827.921875 433.535156 827.921875 422.78125 C 827.921875 412.023438 819.160156 403.273438 808.390625 403.273438 L 655.773438 403.273438 C 651.261719 403.273438 647.613281 399.628906 647.613281 395.128906 C 647.613281 390.625 651.261719 386.980469 655.773438 386.980469 L 780.101562 386.980469 C 789.570312 386.980469 797.277344 379.289062 797.277344 369.828125 C 797.277344 360.375 789.570312 352.679688 780.101562 352.679688 L 637.101562 352.679688 C 629.121094 352.679688 622.109375 347.878906 619.238281 340.445312 C 616.378906 333.019531 618.335938 324.757812 624.242188 319.40625 L 658.65625 288.257812 C 661.667969 285.53125 663.414062 281.789062 663.5625 277.734375 C 663.730469 273.632812 662.25 269.824219 659.441406 266.878906 C 654.832031 262.039062 647.5 260.839844 641.621094 263.957031 C 613 279.136719 523.9375 337.710938 516.308594 342.730469 C 510.042969 348.308594 501.996094 351.359375 493.582031 351.359375 Z M 493.582031 351.359375 " fill-opacity="1" fill-rule="nonzero"/><g clip-path="url(#fbbcd9b10f)"><path fill="#000000" d="M 453.167969 495.144531 L 453.167969 342.503906 C 453.167969 337.167969 448.824219 332.824219 443.476562 332.824219 L 425.472656 332.824219 C 420.132812 332.824219 415.78125 337.164062 415.78125 342.503906 L 415.78125 495.851562 C 415.78125 501.1875 420.128906 505.527344 425.472656 505.527344 L 443.476562 505.527344 C 448.824219 505.527344 453.167969 501.1875 453.167969 495.851562 Z M 453.167969 495.144531 " fill-opacity="1" fill-rule="nonzero"/></g><path fill="#000000" d="M 946.410156 351.359375 L 970.507812 351.359375 L 970.507812 487 L 950.082031 487 C 940.980469 487 932.402344 490.523438 925.941406 496.925781 L 914.398438 508.355469 C 902.644531 520 887.054688 526.414062 870.503906 526.414062 L 703.566406 526.414062 C 697.179688 526.414062 691.984375 521.226562 691.984375 514.851562 C 691.984375 508.476562 697.179688 503.289062 703.566406 503.289062 L 794.820312 503.289062 C 799.332031 503.289062 802.980469 499.644531 802.980469 495.144531 C 802.980469 490.640625 799.332031 487 794.820312 487 L 656.941406 487 C 649.09375 487 642.707031 480.625 642.707031 472.789062 C 642.707031 464.953125 649.09375 458.578125 656.941406 458.578125 L 779.503906 458.578125 C 784.015625 458.578125 787.664062 454.933594 787.664062 450.429688 C 787.664062 445.929688 784.015625 442.285156 779.503906 442.285156 L 631.601562 442.285156 C 620.832031 442.285156 612.070312 433.535156 612.070312 422.78125 C 612.070312 412.023438 620.832031 403.273438 631.601562 403.273438 L 784.222656 403.273438 C 788.730469 403.273438 792.378906 399.628906 792.378906 395.128906 C 792.378906 390.625 788.730469 386.980469 784.222656 386.980469 L 659.890625 386.980469 C 650.421875 386.980469 642.714844 379.289062 642.714844 369.828125 C 642.714844 360.375 650.421875 352.679688 659.890625 352.679688 L 802.894531 352.679688 C 810.871094 352.679688 817.882812 347.878906 820.753906 340.445312 C 823.617188 333.019531 821.65625 324.757812 815.75 319.40625 L 781.339844 288.257812 C 778.324219 285.53125 776.578125 281.789062 776.433594 277.734375 C 776.261719 273.632812 777.742188 269.824219 780.550781 266.878906 C 785.160156 262.039062 792.492188 260.839844 798.375 263.957031 C 826.992188 279.136719 916.058594 337.710938 923.683594 342.730469 C 929.949219 348.308594 937.996094 351.359375 946.410156 351.359375 Z M 946.410156 351.359375 " fill-opacity="1" fill-rule="nonzero"/><g clip-path="url(#7f112fa5e1)"><path fill="#000000" d="M 986.824219 495.144531 L 986.824219 342.503906 C 986.824219 337.167969 991.167969 332.824219 996.515625 332.824219 L 1014.519531 332.824219 C 1019.859375 332.824219 1024.210938 337.164062 1024.210938 342.503906 L 1024.210938 495.851562 C 1024.210938 501.1875 1019.867188 505.527344 1014.519531 505.527344 L 996.515625 505.527344 C 991.167969 505.527344 986.824219 501.1875 986.824219 495.851562 Z M 986.824219 495.144531 " fill-opacity="1" fill-rule="nonzero"/></g></svg>