<svg xmlns="http://www.w3.org/2000/svg" xmlns:xlink="http://www.w3.org/1999/xlink" width="1920" zoomAndPan="magnify" viewBox="0 0 1440 809.999993" height="1080" preserveAspectRatio="xMidYMid meet" version="1.0"><defs><g/><clipPath id="aed87edc3d"><path d="M 442.917969 414 L 477 414 L 477 573 L 442.917969 573 Z M 442.917969 414 " clip-rule="nonzero"/></clipPath><clipPath id="6758a5ca04"><path d="M 963 414 L 996.832031 414 L 996.832031 573 L 963 573 Z M 963 414 " clip-rule="nonzero"/></clipPath></defs><path fill="#000000" d="M 513.503906 431.632812 L 491.53125 431.632812 L 491.53125 555.335938 L 510.15625 555.335938 C 518.460938 555.335938 526.28125 558.550781 532.175781 564.390625 L 542.703125 574.816406 C 553.421875 585.433594 567.636719 591.28125 582.730469 591.28125 L 734.980469 591.28125 C 740.804688 591.28125 745.542969 586.550781 745.542969 580.738281 C 745.542969 574.921875 740.804688 570.195312 734.980469 570.195312 L 651.753906 570.195312 C 647.644531 570.195312 644.316406 566.871094 644.316406 562.765625 C 644.316406 558.660156 647.644531 555.335938 651.753906 555.335938 L 777.503906 555.335938 C 784.660156 555.335938 790.484375 549.523438 790.484375 542.375 C 790.484375 535.230469 784.660156 529.414062 777.503906 529.414062 L 665.722656 529.414062 C 661.613281 529.414062 658.285156 526.09375 658.285156 521.984375 C 658.285156 517.878906 661.613281 514.558594 665.722656 514.558594 L 800.613281 514.558594 C 810.433594 514.558594 818.425781 506.578125 818.425781 496.769531 C 818.425781 486.957031 810.433594 478.976562 800.613281 478.976562 L 661.421875 478.976562 C 657.3125 478.976562 653.984375 475.65625 653.984375 471.550781 C 653.984375 467.445312 657.3125 464.121094 661.421875 464.121094 L 774.8125 464.121094 C 783.449219 464.121094 790.480469 457.101562 790.480469 448.476562 C 790.480469 439.851562 783.449219 432.835938 774.8125 432.835938 L 644.394531 432.835938 C 637.117188 432.835938 630.722656 428.457031 628.105469 421.675781 C 625.496094 414.90625 627.28125 407.371094 632.667969 402.492188 L 664.050781 374.082031 C 666.800781 371.597656 668.394531 368.183594 668.527344 364.484375 C 668.679688 360.746094 667.332031 357.269531 664.773438 354.585938 C 660.566406 350.171875 653.878906 349.078125 648.515625 351.921875 C 622.414062 365.765625 541.1875 419.1875 534.234375 423.761719 C 528.519531 428.847656 521.179688 431.632812 513.503906 431.632812 Z M 513.503906 431.632812 " fill-opacity="1" fill-rule="nonzero"/><g clip-path="url(#aed87edc3d)"><path fill="#000000" d="M 476.648438 562.765625 L 476.648438 423.554688 C 476.648438 418.691406 472.683594 414.730469 467.808594 414.730469 L 451.390625 414.730469 C 446.519531 414.730469 442.550781 418.6875 442.550781 423.554688 L 442.550781 563.410156 C 442.550781 568.277344 446.515625 572.234375 451.390625 572.234375 L 467.808594 572.234375 C 472.683594 572.234375 476.648438 568.277344 476.648438 563.410156 Z M 476.648438 562.765625 " fill-opacity="1" fill-rule="nonzero"/></g><path fill="#000000" d="M 926.488281 431.632812 L 948.464844 431.632812 L 948.464844 555.335938 L 929.835938 555.335938 C 921.535156 555.335938 913.710938 558.550781 907.816406 564.390625 L 897.292969 574.816406 C 886.574219 585.433594 872.355469 591.28125 857.261719 591.28125 L 705.011719 591.28125 C 699.1875 591.28125 694.449219 586.550781 694.449219 580.738281 C 694.449219 574.921875 699.1875 570.195312 705.011719 570.195312 L 788.238281 570.195312 C 792.351562 570.195312 795.679688 566.871094 795.679688 562.765625 C 795.679688 558.660156 792.351562 555.335938 788.238281 555.335938 L 662.492188 555.335938 C 655.332031 555.335938 649.507812 549.523438 649.507812 542.375 C 649.507812 535.230469 655.332031 529.414062 662.492188 529.414062 L 774.269531 529.414062 C 778.382812 529.414062 781.710938 526.09375 781.710938 521.984375 C 781.710938 517.878906 778.382812 514.558594 774.269531 514.558594 L 639.378906 514.558594 C 629.558594 514.558594 621.566406 506.578125 621.566406 496.769531 C 621.566406 486.957031 629.558594 478.976562 639.378906 478.976562 L 778.570312 478.976562 C 782.683594 478.976562 786.011719 475.65625 786.011719 471.550781 C 786.011719 467.445312 782.683594 464.121094 778.570312 464.121094 L 665.179688 464.121094 C 656.542969 464.121094 649.515625 457.101562 649.515625 448.476562 C 649.515625 439.851562 656.542969 432.835938 665.179688 432.835938 L 795.597656 432.835938 C 802.875 432.835938 809.269531 428.457031 811.890625 421.675781 C 814.5 414.90625 812.710938 407.371094 807.324219 402.492188 L 775.941406 374.082031 C 773.191406 371.597656 771.601562 368.183594 771.464844 364.484375 C 771.3125 360.746094 772.660156 357.269531 775.222656 354.585938 C 779.429688 350.171875 786.113281 349.078125 791.476562 351.921875 C 817.578125 365.765625 898.804688 419.1875 905.761719 423.761719 C 911.472656 428.847656 918.816406 431.632812 926.488281 431.632812 Z M 926.488281 431.632812 " fill-opacity="1" fill-rule="nonzero"/><g clip-path="url(#6758a5ca04)"><path fill="#000000" d="M 963.34375 562.765625 L 963.34375 423.554688 C 963.34375 418.691406 967.308594 414.730469 972.183594 414.730469 L 988.605469 414.730469 C 993.476562 414.730469 997.441406 418.6875 997.441406 423.554688 L 997.441406 563.410156 C 997.441406 568.277344 993.480469 572.234375 988.605469 572.234375 L 972.183594 572.234375 C 967.308594 572.234375 963.34375 568.277344 963.34375 563.410156 Z M 963.34375 562.765625 " fill-opacity="1" fill-rule="nonzero"/></g><g fill="#000000" fill-opacity="1"><g transform="translate(478.461496, 405.157456)"><g><path d="M 1 -37.625 C 1.175781 -38.09375 1.75 -38.8125 2.71875 -39.78125 C 3.695312 -40.75 6.929688 -43.828125 12.421875 -49.015625 C 12.796875 -49.367188 13.359375 -49.898438 14.109375 -50.609375 C 19.285156 -55.492188 22.394531 -58.328125 23.4375 -59.109375 C 24.476562 -59.890625 25.492188 -60.296875 26.484375 -60.328125 C 26.597656 -60.421875 26.707031 -60.46875 26.8125 -60.46875 C 28.488281 -60.414062 29.8125 -59.878906 30.78125 -58.859375 C 31.539062 -58.046875 32.03125 -56.878906 32.25 -55.359375 C 32.414062 -52.367188 32.003906 -49.023438 31.015625 -45.328125 C 30.722656 -44.140625 30.578125 -43.546875 30.578125 -43.546875 C 30.578125 -43.546875 32.863281 -45.65625 37.4375 -49.875 C 40.832031 -53.070312 42.863281 -54.960938 43.53125 -55.546875 C 44.207031 -56.128906 44.726562 -56.4375 45.09375 -56.46875 C 46.414062 -56.800781 47.535156 -56.484375 48.453125 -55.515625 C 49.265625 -54.648438 49.550781 -53.640625 49.3125 -52.484375 L 49.28125 -51.578125 L 41.84375 -44.546875 L 34.46875 -37.453125 L 38.140625 -33.40625 C 40.578125 -30.71875 42 -29.054688 42.40625 -28.421875 C 43.832031 -25.285156 43.640625 -22.296875 41.828125 -19.453125 C 41.492188 -18.847656 40.867188 -18.109375 39.953125 -17.234375 C 39.035156 -16.367188 38.234375 -15.765625 37.546875 -15.421875 C 35.679688 -14.378906 33.609375 -13.875 31.328125 -13.90625 C 29.046875 -13.945312 27.296875 -14.515625 26.078125 -15.609375 C 25.460938 -16.148438 25.160156 -16.625 25.171875 -17.03125 C 25.085938 -17.78125 25.597656 -18.3125 26.703125 -18.625 C 27.972656 -19.019531 28.882812 -19.679688 29.4375 -20.609375 C 29.664062 -21.023438 29.765625 -21.546875 29.734375 -22.171875 C 29.703125 -22.796875 29.554688 -23.296875 29.296875 -23.671875 C 29.046875 -24.160156 28.257812 -25.101562 26.9375 -26.5 L 24.953125 -28.609375 L 17.28125 -21.359375 L 9.453125 -13.96875 L 8.5625 -13.75 C 7.351562 -13.414062 6.289062 -13.734375 5.375 -14.703125 C 4.875 -15.234375 4.570312 -15.710938 4.46875 -16.140625 C 4.132812 -17.140625 4.320312 -18.1875 5.03125 -19.28125 C 5.570312 -19.894531 7.890625 -22.132812 11.984375 -26 C 17.421875 -31.132812 20.039062 -33.804688 19.84375 -34.015625 C 19.4375 -34.441406 19.21875 -35.128906 19.1875 -36.078125 C 19.164062 -37.023438 19.320312 -37.863281 19.65625 -38.59375 C 20.039062 -39.15625 20.640625 -39.816406 21.453125 -40.578125 L 22.578125 -41.640625 L 22.109375 -44.25 C 21.703125 -46.625 21.476562 -47.835938 21.4375 -47.890625 C 21.382812 -47.941406 18.796875 -45.550781 13.671875 -40.71875 C 8.554688 -35.882812 5.679688 -33.375 5.046875 -33.1875 C 3.921875 -32.851562 2.878906 -33.144531 1.921875 -34.0625 C 0.796875 -35.039062 0.488281 -36.226562 1 -37.625 Z M -31.140625 -72.984375 C -30.578125 -74.429688 -29.515625 -75.078125 -27.953125 -74.921875 C -27.628906 -74.921875 -26.171875 -74.460938 -23.578125 -73.546875 C -21.085938 -72.742188 -19.722656 -72.101562 -19.484375 -71.625 C -18.867188 -70.875 -18.765625 -69.898438 -19.171875 -68.703125 C -19.671875 -67.410156 -20.53125 -65.835938 -21.75 -63.984375 L -22.3125 -62.984375 L -21.421875 -61.84375 L -20.265625 -60.625 L -18.3125 -62.3125 C -16.988281 -63.476562 -16.03125 -64.132812 -15.4375 -64.28125 C -14.226562 -64.507812 -13.242188 -64.160156 -12.484375 -63.234375 C -11.734375 -62.316406 -11.554688 -61.269531 -11.953125 -60.09375 C -12.222656 -59.519531 -12.921875 -58.703125 -14.046875 -57.640625 L -15.84375 -55.953125 L -14.78125 -54.8125 L -13.859375 -53.84375 L -11.921875 -55.53125 C -10.898438 -56.394531 -10.160156 -56.9375 -9.703125 -57.15625 C -9.253906 -57.375 -8.691406 -57.453125 -8.015625 -57.390625 C -7.285156 -57.367188 -6.648438 -57.070312 -6.109375 -56.5 C -5.578125 -55.9375 -5.320312 -55.289062 -5.34375 -54.5625 C -5.257812 -53.925781 -5.351562 -53.375 -5.625 -52.90625 C -5.894531 -52.445312 -6.539062 -51.734375 -7.5625 -50.765625 L -9.359375 -49.078125 L -7.765625 -47.375 C -7.398438 -47 -7.128906 -46.71875 -6.953125 -46.53125 C -6.785156 -46.34375 -6.617188 -46.191406 -6.453125 -46.078125 C -6.296875 -45.972656 -6.203125 -45.929688 -6.171875 -45.953125 C -6.148438 -45.984375 -6.085938 -46.050781 -5.984375 -46.15625 C -5.972656 -46.257812 -5.019531 -47.359375 -3.125 -49.453125 C -1.289062 -51.492188 -0.320312 -52.617188 -0.21875 -52.828125 C -0.101562 -53.046875 1.113281 -54.347656 3.4375 -56.734375 C 5.65625 -59.140625 6.789062 -60.367188 6.84375 -60.421875 C 6.789062 -60.472656 6.109375 -60.488281 4.796875 -60.46875 L 2.59375 -60.53125 L 1.90625 -58.515625 C 1.457031 -57.265625 0.9375 -56.003906 0.34375 -54.734375 C -0.238281 -53.472656 -0.660156 -52.769531 -0.921875 -52.625 C -1.671875 -52.332031 -2.195312 -52.445312 -2.5 -52.96875 C -2.632812 -53.238281 -2.773438 -54.628906 -2.921875 -57.140625 C -3.054688 -59.566406 -3.148438 -60.804688 -3.203125 -60.859375 C -3.253906 -60.910156 -4.21875 -61.015625 -6.09375 -61.171875 C -7.769531 -61.328125 -8.84375 -61.441406 -9.3125 -61.515625 C -10.3125 -61.691406 -10.796875 -62.203125 -10.765625 -63.046875 C -10.691406 -63.722656 -10.382812 -64.265625 -9.84375 -64.671875 C -9.3125 -65.078125 -8.195312 -65.617188 -6.5 -66.296875 C -5.125 -66.679688 -4.410156 -66.945312 -4.359375 -67.09375 C -4.304688 -67.25 -4.425781 -68.050781 -4.71875 -69.5 C -5.019531 -70.957031 -5.082031 -71.863281 -4.90625 -72.21875 L -4.828125 -72.78125 L -6.25 -72.828125 C -7.175781 -72.953125 -7.664062 -72.988281 -7.71875 -72.9375 C -7.882812 -72.78125 -8.195312 -72.035156 -8.65625 -70.703125 C -9.894531 -67.367188 -10.8125 -65.425781 -11.40625 -64.875 C -11.832031 -64.46875 -12.382812 -64.398438 -13.0625 -64.671875 C -13.425781 -64.835938 -13.65625 -65.132812 -13.75 -65.5625 C -13.84375 -65.988281 -13.941406 -67.113281 -14.046875 -68.9375 C -14.203125 -70.9375 -14.320312 -72.15625 -14.40625 -72.59375 L -14.5625 -73.53125 L -15.25 -73.625 C -16.03125 -73.695312 -17.257812 -73.8125 -18.9375 -73.96875 C -20.976562 -74.1875 -22.175781 -74.375 -22.53125 -74.53125 C -23.207031 -74.820312 -23.546875 -75.242188 -23.546875 -75.796875 C -23.554688 -76.347656 -23.21875 -76.84375 -22.53125 -77.28125 C -21.101562 -78.132812 -19.273438 -78.84375 -17.046875 -79.40625 C -16.316406 -79.59375 -15.957031 -79.804688 -15.96875 -80.046875 C -15.988281 -80.285156 -16.210938 -81.21875 -16.640625 -82.84375 C -17.078125 -84.175781 -17.273438 -85.085938 -17.234375 -85.578125 C -17.191406 -86.078125 -16.925781 -86.554688 -16.4375 -87.015625 C -16.0625 -87.378906 -15.53125 -87.628906 -14.84375 -87.765625 C -14.15625 -87.898438 -12.816406 -87.9375 -10.828125 -87.875 C -9.578125 -87.84375 -8.820312 -87.796875 -8.5625 -87.734375 C -8.300781 -87.679688 -8.015625 -87.492188 -7.703125 -87.171875 C -7.046875 -86.472656 -6.691406 -85.070312 -6.640625 -82.96875 L -6.609375 -81.46875 L -5.03125 -81.59375 C -2.570312 -81.78125 -1.195312 -81.34375 -0.90625 -80.28125 C -0.863281 -80.019531 -0.816406 -78.945312 -0.765625 -77.0625 L -0.84375 -74.390625 L 0.109375 -74.359375 C 1.617188 -74.566406 2.644531 -74.441406 3.1875 -73.984375 C 3.726562 -73.535156 4.003906 -72.492188 4.015625 -70.859375 C 4.023438 -69.660156 4.082031 -69.007812 4.1875 -68.90625 C 4.238281 -68.84375 4.921875 -68.820312 6.234375 -68.84375 C 8.117188 -68.894531 9.265625 -68.675781 9.671875 -68.1875 C 10.078125 -67.707031 10.203125 -66.523438 10.046875 -64.640625 L 9.90625 -62.84375 L 13.484375 -66.5 C 15.890625 -68.90625 17.066406 -70.132812 17.015625 -70.1875 C 17.015625 -70.1875 16.769531 -70.554688 16.28125 -71.296875 L 15.375 -72.421875 L 14.09375 -71.21875 C 13.28125 -70.445312 12.523438 -69.992188 11.828125 -69.859375 C 10.722656 -69.734375 9.789062 -70.125 9.03125 -71.03125 C 8.28125 -71.945312 8.15625 -72.953125 8.65625 -74.046875 C 8.769531 -74.660156 9.234375 -75.351562 10.046875 -76.125 C 10.742188 -76.78125 11.109375 -77.195312 11.140625 -77.375 C 11.179688 -77.5625 10.867188 -78.007812 10.203125 -78.71875 L 9.296875 -79.6875 L 8.078125 -78.53125 C 6.679688 -77.207031 5.410156 -76.660156 4.265625 -76.890625 C 2.898438 -77.148438 2.109375 -77.988281 1.890625 -79.40625 C 1.753906 -80.101562 1.820312 -80.679688 2.09375 -81.140625 C 2.363281 -81.597656 2.910156 -82.257812 3.734375 -83.125 L 5.34375 -84.65625 L 4.4375 -85.796875 C 3.832031 -86.546875 3.476562 -86.921875 3.375 -86.921875 C 3.207031 -86.984375 2.640625 -86.554688 1.671875 -85.640625 C 0.390625 -84.421875 -0.695312 -83.789062 -1.59375 -83.75 C -2.644531 -83.800781 -3.523438 -84.203125 -4.234375 -84.953125 C -5.054688 -85.816406 -5.316406 -86.84375 -5.015625 -88.03125 L -4.828125 -88.96875 L 0.09375 -93.625 C 2.738281 -96.21875 4.410156 -97.765625 5.109375 -98.265625 C 5.804688 -98.765625 6.554688 -98.960938 7.359375 -98.859375 C 8.171875 -98.765625 8.960938 -98.34375 9.734375 -97.59375 C 10.503906 -96.84375 12.78125 -94.234375 16.5625 -89.765625 C 17.53125 -88.640625 18.738281 -87.253906 20.1875 -85.609375 C 21.632812 -83.960938 22.773438 -82.644531 23.609375 -81.65625 C 24.441406 -80.675781 25.015625 -80.023438 25.328125 -79.703125 L 26.984375 -77.578125 L 28.5 -78.265625 C 30.144531 -78.898438 31.644531 -78.988281 33 -78.53125 C 33.625 -78.40625 35.078125 -77.128906 37.359375 -74.703125 L 40.71875 -71.15625 L 40.78125 -70.109375 C 40.789062 -69.117188 40.671875 -68.429688 40.421875 -68.046875 C 40.179688 -67.660156 39.359375 -66.753906 37.953125 -65.328125 C 36.171875 -63.648438 35.179688 -62.757812 34.984375 -62.65625 C 34.648438 -62.46875 34.171875 -62.351562 33.546875 -62.3125 C 32.921875 -62.28125 32.425781 -62.347656 32.0625 -62.515625 C 31.707031 -62.679688 31.070312 -63.25 30.15625 -64.21875 C 28.457031 -65.894531 27.171875 -66.769531 26.296875 -66.84375 C 25.347656 -66.875 24.5 -66.582031 23.75 -65.96875 C 23.007812 -65.363281 21.019531 -63.535156 17.78125 -60.484375 C 7.757812 -50.921875 0.628906 -43.582031 -3.609375 -38.46875 C -4.421875 -37.382812 -4.816406 -36.753906 -4.796875 -36.578125 C -4.785156 -36.398438 -4.140625 -35.632812 -2.859375 -34.28125 C -1.492188 -32.726562 -0.765625 -31.6875 -0.671875 -31.15625 C -0.578125 -30.632812 -0.601562 -30.097656 -0.75 -29.546875 C -0.90625 -28.992188 -1.769531 -27.929688 -3.34375 -26.359375 C -4.632812 -25.128906 -5.546875 -24.3125 -6.078125 -23.90625 C -6.609375 -23.507812 -7.191406 -23.320312 -7.828125 -23.34375 C -8.660156 -23.25 -9.367188 -23.410156 -9.953125 -23.828125 C -10.546875 -24.242188 -11.785156 -25.453125 -13.671875 -27.453125 C -15.503906 -29.390625 -16.644531 -30.703125 -17.09375 -31.390625 C -17.550781 -32.078125 -17.847656 -32.816406 -17.984375 -33.609375 C -18.109375 -34.921875 -17.675781 -36.144531 -16.6875 -37.28125 L -15.953125 -37.96875 L -24.578125 -47.09375 C -30.316406 -53.175781 -33.335938 -56.535156 -33.640625 -57.171875 C -33.847656 -57.703125 -33.914062 -58.226562 -33.84375 -58.75 C -33.78125 -59.269531 -33.472656 -60.757812 -32.921875 -63.21875 C -32.421875 -65.8125 -32.046875 -67.945312 -31.796875 -69.625 C -31.492188 -71.445312 -31.273438 -72.566406 -31.140625 -72.984375 Z M -31.140625 -72.984375 "/></g></g></g><g fill="#000000" fill-opacity="1"><g transform="translate(536.880105, 349.314934)"><g><path d="M 14.734375 -80.34375 C 16.203125 -82.414062 17.128906 -83.5625 17.515625 -83.78125 C 18.398438 -84.34375 19.398438 -84.296875 20.515625 -83.640625 C 20.898438 -83.421875 22.15625 -82.476562 24.28125 -80.8125 C 26.414062 -79.15625 27.640625 -78.117188 27.953125 -77.703125 C 28.273438 -77.285156 28.457031 -76.769531 28.5 -76.15625 C 28.539062 -75.550781 28.4375 -75.007812 28.1875 -74.53125 C 27.40625 -73.175781 25.15625 -70.882812 21.4375 -67.65625 C 20.5 -66.894531 19.898438 -66.359375 19.640625 -66.046875 C 19.390625 -65.898438 19.328125 -65.671875 19.453125 -65.359375 C 19.578125 -65.054688 20.140625 -64 21.140625 -62.1875 L 23.0625 -58.6875 L 29.4375 -62.046875 L 35.84375 -65.40625 L 36.78125 -65.3125 C 38.082031 -65.269531 39.023438 -64.710938 39.609375 -63.640625 C 40.203125 -62.566406 40.1875 -61.429688 39.5625 -60.234375 L 39.09375 -59.484375 L 32.75 -56.015625 L 26.390625 -52.390625 L 26.875 -51.515625 C 27.113281 -51.222656 27.765625 -50.101562 28.828125 -48.15625 L 30.21875 -45.625 L 39.875 -50.921875 C 46.300781 -54.441406 49.753906 -56.242188 50.234375 -56.328125 C 51.703125 -56.554688 52.8125 -55.984375 53.5625 -54.609375 C 53.914062 -53.960938 54.046875 -53.253906 53.953125 -52.484375 C 53.867188 -51.722656 53.554688 -51.066406 53.015625 -50.515625 C 52.765625 -50.210938 49.457031 -48.3125 43.09375 -44.8125 L 33.640625 -39.625 L 37.234375 -32.859375 C 39.234375 -29.054688 40.457031 -26.625 40.90625 -25.5625 C 41.363281 -24.5 41.582031 -23.363281 41.5625 -22.15625 C 41.601562 -20.414062 41.078125 -18.800781 39.984375 -17.3125 C 38.898438 -15.832031 37.382812 -14.640625 35.4375 -13.734375 C 33.1875 -12.753906 30.679688 -12.503906 27.921875 -12.984375 C 25.171875 -13.460938 23.28125 -14.5625 22.25 -16.28125 C 21.789062 -16.945312 21.570312 -17.5 21.59375 -17.9375 C 21.769531 -18.707031 22.46875 -19.128906 23.6875 -19.203125 C 25.300781 -19.328125 26.472656 -19.804688 27.203125 -20.640625 C 27.785156 -21.285156 27.972656 -21.910156 27.765625 -22.515625 C 27.554688 -23.117188 26.632812 -24.921875 25 -27.921875 L 22.203125 -33.234375 L 11.53125 -27.5 C 6.394531 -24.675781 3.304688 -23.019531 2.265625 -22.53125 C 1.222656 -22.050781 0.492188 -21.816406 0.078125 -21.828125 C -0.960938 -21.859375 -1.8125 -22.28125 -2.46875 -23.09375 C -3.125 -23.914062 -3.347656 -24.898438 -3.140625 -26.046875 C -2.992188 -26.710938 -2.460938 -27.359375 -1.546875 -27.984375 C -0.628906 -28.617188 2.65625 -30.488281 8.3125 -33.59375 L 18.734375 -39.3125 L 16.875 -42.71875 L 15 -46.125 L 8.65625 -42.640625 C 4.3125 -40.253906 1.90625 -39.023438 1.4375 -38.953125 C 0.320312 -38.660156 -0.675781 -38.90625 -1.5625 -39.6875 C -2.457031 -40.476562 -2.847656 -41.457031 -2.734375 -42.625 C -2.691406 -43.476562 -2.332031 -44.175781 -1.65625 -44.71875 C -0.976562 -45.257812 1.238281 -46.5625 5 -48.625 L 11.578125 -52.375 L 9.875 -55.484375 C 8.726562 -57.554688 8.085938 -58.554688 7.953125 -58.484375 C 5.816406 -57.304688 3.09375 -56.109375 -0.21875 -54.890625 C -2.957031 -53.734375 -4.835938 -53.125 -5.859375 -53.0625 C -6.890625 -53 -7.632812 -53.394531 -8.09375 -54.25 C -8.519531 -55.019531 -8.0625 -56.03125 -6.71875 -57.28125 C 2.769531 -65.53125 9.921875 -73.21875 14.734375 -80.34375 Z M 14.734375 -80.34375 "/></g></g></g><g fill="#000000" fill-opacity="1"><g transform="translate(601.99467, 311.202354)"><g><path d="M 24.3125 -18 C 24.164062 -18.039062 23.664062 -18 22.8125 -17.875 C 21.96875 -17.75 21.457031 -17.59375 21.28125 -17.40625 C 21.132812 -17.375 20.882812 -17.28125 20.53125 -17.125 L 20.046875 -16.78125 L 20.78125 -13.65625 C 21.3125 -11.40625 21.703125 -10.203125 21.953125 -10.046875 C 22.066406 -9.910156 22.753906 -9.988281 24.015625 -10.28125 C 25.285156 -10.582031 25.945312 -10.851562 26 -11.09375 C 26.050781 -11.332031 25.847656 -12.5 25.390625 -14.59375 C 24.941406 -16.695312 24.582031 -17.832031 24.3125 -18 Z M 10.15625 -22.453125 C 10.4375 -22.597656 11.300781 -22.820312 12.75 -23.125 C 14.195312 -23.425781 15.179688 -23.597656 15.703125 -23.640625 C 16.453125 -23.660156 17.097656 -23.507812 17.640625 -23.1875 L 18.484375 -22.453125 L 20.109375 -23.296875 C 21.273438 -23.878906 22.71875 -24.410156 24.4375 -24.890625 C 28.59375 -26.304688 31.78125 -26.328125 34 -24.953125 C 34.882812 -24.398438 35.546875 -23.679688 35.984375 -22.796875 C 36.421875 -21.910156 37.039062 -20.070312 37.84375 -17.28125 C 38.65625 -13.820312 39.050781 -11.460938 39.03125 -10.203125 C 39.019531 -8.941406 38.566406 -7.976562 37.671875 -7.3125 C 36.972656 -6.695312 35.878906 -6.15625 34.390625 -5.6875 C 32.898438 -5.226562 29.660156 -4.421875 24.671875 -3.265625 L 15.796875 -1.296875 L 14.71875 -1.5 C 14 -1.632812 13.273438 -1.957031 12.546875 -2.46875 C 11.816406 -2.988281 11.289062 -3.515625 10.96875 -4.046875 C 10.65625 -4.578125 9.984375 -7.046875 8.953125 -11.453125 C 7.941406 -15.785156 7.507812 -18.3125 7.65625 -19.03125 C 7.675781 -19.570312 7.910156 -20.175781 8.359375 -20.84375 C 8.816406 -21.519531 9.207031 -21.972656 9.53125 -22.203125 C 9.875 -22.359375 10.082031 -22.441406 10.15625 -22.453125 Z M 65.859375 -29.1875 C 65.035156 -29.15625 64.019531 -28.957031 62.8125 -28.59375 C 60.925781 -27.851562 59.378906 -27.148438 58.171875 -26.484375 L 57.265625 -25.921875 L 58.078125 -22.46875 C 58.597656 -20.226562 58.953125 -18.863281 59.140625 -18.375 C 59.523438 -17.769531 59.960938 -17.453125 60.453125 -17.421875 C 60.953125 -17.390625 62.285156 -17.628906 64.453125 -18.140625 C 67.128906 -18.765625 68.570312 -19.253906 68.78125 -19.609375 C 69 -19.960938 68.816406 -21.40625 68.234375 -23.9375 C 67.773438 -26.25 67.421875 -27.679688 67.171875 -28.234375 C 66.929688 -28.785156 66.492188 -29.101562 65.859375 -29.1875 Z M 45.828125 -31.921875 C 46.285156 -32.265625 47.378906 -32.632812 49.109375 -33.03125 C 50.835938 -33.4375 52.039062 -33.644531 52.71875 -33.65625 C 53.632812 -33.71875 54.4375 -33.410156 55.125 -32.734375 L 55.6875 -32.28125 L 57.609375 -33.3125 C 59.648438 -34.394531 62.1875 -35.347656 65.21875 -36.171875 C 68.257812 -36.992188 70.566406 -37.4375 72.140625 -37.5 C 75.847656 -37.3125 78.335938 -35.613281 79.609375 -32.40625 C 79.972656 -31.5 80.554688 -29.164062 81.359375 -25.40625 L 82.578125 -19.734375 L 82.390625 -18.5625 C 81.941406 -16.5625 80.265625 -15.101562 77.359375 -14.1875 C 76.023438 -13.726562 71.890625 -12.726562 64.953125 -11.1875 C 58.023438 -9.570312 54.203125 -8.832031 53.484375 -8.96875 C 51.148438 -9.175781 49.351562 -10.203125 48.09375 -12.046875 C 47.632812 -12.691406 46.8125 -15.554688 45.625 -20.640625 C 44.4375 -25.734375 43.925781 -28.5625 44.09375 -29.125 C 44.320312 -30.394531 44.898438 -31.328125 45.828125 -31.921875 Z M 7.34375 -31.046875 C 7.894531 -31.328125 11.773438 -32.3125 18.984375 -34 C 26.203125 -35.6875 30.078125 -36.515625 30.609375 -36.484375 C 31.828125 -36.160156 32.59375 -35.328125 32.90625 -33.984375 C 33.21875 -32.648438 32.890625 -31.609375 31.921875 -30.859375 C 31.472656 -30.523438 27.640625 -29.515625 20.421875 -27.828125 C 15.015625 -26.554688 11.800781 -25.820312 10.78125 -25.625 C 9.769531 -25.425781 9.0625 -25.359375 8.65625 -25.421875 C 7.207031 -25.765625 6.398438 -26.640625 6.234375 -28.046875 C 6.109375 -29.234375 6.476562 -30.234375 7.34375 -31.046875 Z M 5.328125 -40.71875 C 5.765625 -41.0625 9.484375 -42.050781 16.484375 -43.6875 C 21.753906 -44.914062 24.878906 -45.625 25.859375 -45.8125 C 26.847656 -46 27.578125 -46.070312 28.046875 -46.03125 C 29.421875 -45.675781 30.242188 -44.75 30.515625 -43.25 C 30.796875 -41.75 30.300781 -40.625 29.03125 -39.875 C 28.695312 -39.632812 25.03125 -38.703125 18.03125 -37.078125 C 11.101562 -35.453125 7.410156 -34.664062 6.953125 -34.71875 C 6.078125 -34.894531 5.34375 -35.289062 4.75 -35.90625 C 4.101562 -36.675781 3.84375 -37.515625 3.96875 -38.421875 C 4.101562 -39.328125 4.554688 -40.09375 5.328125 -40.71875 Z M -0.59375 -49.953125 C -0.132812 -50.296875 4.707031 -51.546875 13.9375 -53.703125 C 14.21875 -53.773438 14.679688 -53.882812 15.328125 -54.03125 C 21.898438 -55.570312 25.769531 -56.4375 26.9375 -56.625 C 28.101562 -56.8125 29.039062 -56.71875 29.75 -56.34375 C 29.757812 -56.269531 29.765625 -56.234375 29.765625 -56.234375 C 30.285156 -55.984375 30.660156 -55.445312 30.890625 -54.625 C 31.117188 -53.8125 31.085938 -53.179688 30.796875 -52.734375 C 30.816406 -52.660156 30.8125 -52.539062 30.78125 -52.375 C 30.550781 -51.789062 29.90625 -51.316406 28.84375 -50.953125 C 27.78125 -50.585938 24.222656 -49.695312 18.171875 -48.28125 C 16.941406 -48 16.003906 -47.78125 15.359375 -47.625 C 14.921875 -47.53125 14.269531 -47.378906 13.40625 -47.171875 C 6.914062 -45.660156 3.097656 -44.804688 1.953125 -44.609375 C 0.816406 -44.421875 0.015625 -44.535156 -0.453125 -44.953125 C -0.546875 -45.015625 -0.597656 -45.082031 -0.609375 -45.15625 C -1.441406 -45.726562 -1.859375 -46.503906 -1.859375 -47.484375 C -1.859375 -48.472656 -1.4375 -49.296875 -0.59375 -49.953125 Z M 60.734375 -50.234375 L 59.875 -53.921875 L 57.921875 -53.46875 L 55.9375 -53.125 L 55.953125 -52.546875 C 56.171875 -49.015625 56.40625 -46.710938 56.65625 -45.640625 C 56.707031 -45.421875 57.53125 -45.5 59.125 -45.875 L 61.59375 -46.5625 Z M 32.65625 -67.890625 C 33.070312 -68.296875 39.164062 -69.875 50.9375 -72.625 C 62.625 -75.351562 68.738281 -76.695312 69.28125 -76.65625 C 70.050781 -76.613281 70.773438 -76.273438 71.453125 -75.640625 C 72.128906 -75.003906 72.476562 -74.304688 72.5 -73.546875 C 72.53125 -72.484375 72.109375 -71.546875 71.234375 -70.734375 C 70.828125 -70.484375 70.265625 -70.253906 69.546875 -70.046875 C 68.835938 -69.847656 66.503906 -69.285156 62.546875 -68.359375 L 54.640625 -66.515625 L 54.90625 -63.375 C 55.1875 -61.238281 55.335938 -60.132812 55.359375 -60.0625 C 55.410156 -59.851562 57.378906 -60.203125 61.265625 -61.109375 C 65.160156 -62.015625 67.367188 -62.492188 67.890625 -62.546875 C 68.429688 -62.515625 69.085938 -62.226562 69.859375 -61.6875 C 70.640625 -61.144531 71.179688 -60.625 71.484375 -60.125 C 71.796875 -59.625 72.335938 -57.71875 73.109375 -54.40625 L 74.265625 -49.421875 L 76.421875 -49.921875 C 77.796875 -50.242188 78.8125 -50.296875 79.46875 -50.078125 C 80.632812 -49.648438 81.351562 -48.785156 81.625 -47.484375 C 81.894531 -46.179688 81.550781 -45.109375 80.59375 -44.265625 C 80.21875 -43.960938 73.394531 -42.257812 60.125 -39.15625 C 46.789062 -35.96875 39.890625 -34.394531 39.421875 -34.4375 C 38.367188 -34.40625 37.472656 -34.804688 36.734375 -35.640625 C 36.609375 -35.898438 36.460938 -36.375 36.296875 -37.0625 C 36.140625 -37.75 36.050781 -38.285156 36.03125 -38.671875 C 36.414062 -39.660156 37.148438 -40.4375 38.234375 -41 C 38.773438 -41.28125 39.828125 -41.5625 41.390625 -41.84375 C 42.960938 -42.132812 43.796875 -42.328125 43.890625 -42.421875 C 43.984375 -42.523438 43.925781 -43.660156 43.71875 -45.828125 C 43.6875 -46.335938 43.65625 -46.894531 43.625 -47.5 C 43.59375 -48.101562 43.550781 -48.59375 43.5 -48.96875 C 43.457031 -49.34375 43.421875 -49.597656 43.390625 -49.734375 L 43.5 -50.21875 L 41.4375 -49.734375 C 40.28125 -49.460938 39.445312 -49.363281 38.9375 -49.4375 C 38.4375 -49.507812 37.910156 -49.75 37.359375 -50.15625 C 36.515625 -50.789062 36.085938 -51.617188 36.078125 -52.640625 C 36.066406 -53.671875 36.476562 -54.515625 37.3125 -55.171875 C 37.84375 -55.523438 38.90625 -55.882812 40.5 -56.25 C 42.15625 -56.644531 42.960938 -56.910156 42.921875 -57.046875 C 42.890625 -57.191406 42.804688 -58.273438 42.671875 -60.296875 C 42.546875 -62.316406 42.46875 -63.398438 42.4375 -63.546875 C 42.414062 -63.617188 41.109375 -63.351562 38.515625 -62.75 C 36.421875 -62.257812 35.035156 -61.992188 34.359375 -61.953125 C 33.691406 -61.910156 33.035156 -62.117188 32.390625 -62.578125 C 31.992188 -63.015625 31.6875 -63.609375 31.46875 -64.359375 C 31.257812 -65.109375 31.265625 -65.8125 31.484375 -66.46875 C 31.734375 -67.0625 32.125 -67.535156 32.65625 -67.890625 Z M 8.859375 -67.5625 C 9.878906 -68.113281 11.003906 -68.34375 12.234375 -68.25 C 13.472656 -68.15625 14.539062 -67.832031 15.4375 -67.28125 C 16.625 -66.425781 17.421875 -65.128906 17.828125 -63.390625 C 18.066406 -62.390625 18.113281 -61.523438 17.96875 -60.796875 C 17.394531 -58.378906 15.929688 -56.820312 13.578125 -56.125 C 11.671875 -55.53125 9.941406 -55.773438 8.390625 -56.859375 C 6.847656 -57.941406 5.945312 -59.441406 5.6875 -61.359375 C 5.4375 -63.273438 6.015625 -64.96875 7.421875 -66.4375 C 7.992188 -66.945312 8.472656 -67.320312 8.859375 -67.5625 Z M 8.859375 -67.5625 "/></g></g></g><g fill="#000000" fill-opacity="1"><g transform="translate(693.962498, 292.694707)"><g/></g></g><g fill="#000000" fill-opacity="1"><g transform="translate(717.317173, 289.004895)"><g><path d="M 55.609375 -11.1875 C 56.453125 -11.457031 57.226562 -11.398438 57.9375 -11.015625 C 58.414062 -10.710938 59.492188 -9.707031 61.171875 -8 C 62.859375 -6.289062 63.820312 -5.226562 64.0625 -4.8125 C 64.25 -4.425781 64.28125 -3.90625 64.15625 -3.25 C 64.03125 -2.59375 63.488281 -1.800781 62.53125 -0.875 C 59.863281 1.84375 56.429688 4.378906 52.234375 6.734375 L 50.796875 7.5625 L 52.09375 8.625 C 53.113281 9.425781 53.769531 9.976562 54.0625 10.28125 C 54.363281 10.59375 54.597656 10.976562 54.765625 11.4375 C 54.972656 12.0625 55.015625 12.59375 54.890625 13.03125 C 54.679688 13.4375 53.679688 14.625 51.890625 16.59375 C 50.109375 18.570312 48.976562 19.644531 48.5 19.8125 C 47.632812 20.21875 46.710938 20.140625 45.734375 19.578125 C 45.390625 19.367188 44.382812 18.222656 42.71875 16.140625 C 39.84375 12.472656 36.851562 9.015625 33.75 5.765625 C 32.1875 4.140625 31.363281 3.0625 31.28125 2.53125 C 31.144531 1.757812 31.34375 1.1875 31.875 0.8125 C 32.414062 0.4375 33.164062 0.3125 34.125 0.4375 C 35.738281 0.65625 38 1.363281 40.90625 2.5625 C 42.175781 3.101562 42.882812 3.382812 43.03125 3.40625 C 43.25 3.4375 43.757812 2.976562 44.5625 2.03125 C 47.539062 -1.226562 49.050781 -3.007812 49.09375 -3.3125 C 49.09375 -3.382812 45.453125 -3.898438 38.171875 -4.859375 C 30.898438 -5.816406 27.023438 -6.4375 26.546875 -6.71875 C 25.429688 -7.3125 24.921875 -8.273438 25.015625 -9.609375 C 25.046875 -10.347656 25.113281 -10.859375 25.21875 -11.140625 C 25.625 -11.984375 26.378906 -12.597656 27.484375 -12.984375 C 28.109375 -13.128906 32.644531 -12.644531 41.09375 -11.53125 L 53.875 -9.859375 L 54.25 -10.359375 C 54.601562 -10.765625 55.054688 -11.039062 55.609375 -11.1875 Z M 46.109375 -21.75 C 47.171875 -21.832031 48.265625 -21.570312 49.390625 -20.96875 C 49.722656 -20.707031 50.144531 -20.28125 50.65625 -19.6875 C 52.15625 -17.925781 52.375 -16.007812 51.3125 -13.9375 C 50.25 -11.875 48.578125 -10.921875 46.296875 -11.078125 C 44.648438 -11.140625 43.34375 -11.738281 42.375 -12.875 C 41.40625 -14.007812 41.023438 -15.382812 41.234375 -17 C 41.410156 -18.320312 41.945312 -19.410156 42.84375 -20.265625 C 43.738281 -21.117188 44.828125 -21.613281 46.109375 -21.75 Z M 58.984375 -38.65625 C 59.660156 -38.726562 60.65625 -38.632812 61.96875 -38.375 C 63.28125 -38.125 64.070312 -37.910156 64.34375 -37.734375 C 65.238281 -37.097656 65.65625 -36.257812 65.59375 -35.21875 C 65.488281 -34.488281 65.300781 -33.914062 65.03125 -33.5 C 64.507812 -32.96875 63.941406 -32.648438 63.328125 -32.546875 C 62.722656 -32.441406 61.6875 -32.484375 60.21875 -32.671875 C 58.59375 -32.890625 57.582031 -33.132812 57.1875 -33.40625 C 56.269531 -33.976562 55.84375 -34.78125 55.90625 -35.8125 C 55.875 -36.707031 56.15625 -37.414062 56.75 -37.9375 C 57.351562 -38.457031 58.097656 -38.695312 58.984375 -38.65625 Z M 32.953125 -41.953125 C 33.359375 -42.140625 34.238281 -42.144531 35.59375 -41.96875 C 36.957031 -41.789062 37.921875 -41.582031 38.484375 -41.34375 C 39.492188 -41.0625 40.125 -40.460938 40.375 -39.546875 C 40.65625 -38.753906 40.507812 -37.90625 39.9375 -37 C 39.550781 -36.382812 39.03125 -36.007812 38.375 -35.875 C 37.726562 -35.738281 36.707031 -35.757812 35.3125 -35.9375 C 33.914062 -36.125 32.9375 -36.328125 32.375 -36.546875 C 31.8125 -36.773438 31.363281 -37.097656 31.03125 -37.515625 C 30.414062 -38.492188 30.296875 -39.441406 30.671875 -40.359375 C 31.054688 -41.273438 31.816406 -41.804688 32.953125 -41.953125 Z M 58.59375 -45.890625 C 59.0625 -46.128906 60.195312 -46.128906 62 -45.890625 C 63.800781 -45.648438 64.898438 -45.359375 65.296875 -45.015625 C 66.265625 -44.367188 66.632812 -43.457031 66.40625 -42.28125 C 66.175781 -41.113281 65.441406 -40.382812 64.203125 -40.09375 C 63.523438 -39.96875 62.453125 -40.019531 60.984375 -40.25 C 59.515625 -40.476562 58.546875 -40.773438 58.078125 -41.140625 C 57.097656 -41.703125 56.679688 -42.550781 56.828125 -43.6875 C 56.984375 -44.832031 57.570312 -45.566406 58.59375 -45.890625 Z M 33.890625 -49.125 C 34.296875 -49.300781 35.359375 -49.273438 37.078125 -49.046875 C 38.804688 -48.816406 39.878906 -48.566406 40.296875 -48.296875 C 41.265625 -47.648438 41.691406 -46.769531 41.578125 -45.65625 C 41.472656 -44.539062 40.910156 -43.796875 39.890625 -43.421875 C 39.492188 -43.234375 38.519531 -43.222656 36.96875 -43.390625 C 35.414062 -43.554688 34.320312 -43.757812 33.6875 -44 C 32.90625 -44.332031 32.347656 -44.835938 32.015625 -45.515625 C 31.691406 -46.191406 31.65625 -46.882812 31.90625 -47.59375 C 32.238281 -48.363281 32.898438 -48.875 33.890625 -49.125 Z M 32.25 -69.84375 C 32.789062 -70 39.523438 -69.226562 52.453125 -67.53125 L 71.84375 -64.984375 L 72.5625 -64.453125 C 73.53125 -63.804688 74.003906 -62.863281 73.984375 -61.625 C 73.960938 -60.394531 73.503906 -59.460938 72.609375 -58.828125 C 71.953125 -58.410156 71.269531 -58.207031 70.5625 -58.21875 C 69.863281 -58.226562 67.710938 -58.472656 64.109375 -58.953125 L 57.390625 -59.828125 L 57.15625 -58.078125 L 56.9375 -56.421875 L 60.265625 -56.1875 C 71.566406 -55.164062 78.15625 -52.398438 80.03125 -47.890625 C 80.375 -47.097656 80.535156 -46.195312 80.515625 -45.1875 C 80.503906 -44.1875 80.289062 -42.101562 79.875 -38.9375 L 78.96875 -32.90625 L 78.328125 -32.328125 C 77.566406 -31.671875 76.898438 -31.304688 76.328125 -31.234375 C 75.753906 -31.160156 74.515625 -31.25 72.609375 -31.5 C 70.710938 -31.75 69.441406 -31.988281 68.796875 -32.21875 C 68.148438 -32.445312 67.644531 -32.882812 67.28125 -33.53125 L 66.703125 -34.40625 L 67.28125 -39.484375 C 67.644531 -42.859375 67.753906 -44.820312 67.609375 -45.375 C 67.316406 -46.082031 66.96875 -46.613281 66.5625 -46.96875 C 66.039062 -47.5625 65.382812 -47.984375 64.59375 -48.234375 C 63.8125 -48.484375 62.328125 -48.789062 60.140625 -49.15625 L 56.1875 -49.78125 L 55.265625 -43.640625 C 54.640625 -39.535156 54.15625 -37.242188 53.8125 -36.765625 C 53.15625 -35.796875 52.363281 -35.191406 51.4375 -34.953125 L 50.71875 -34.703125 L 52.671875 -32.421875 C 53.898438 -30.921875 54.488281 -29.988281 54.4375 -29.625 C 54.320312 -29.332031 54.378906 -29.097656 54.609375 -28.921875 C 54.847656 -28.742188 55.707031 -28.257812 57.1875 -27.46875 C 63.289062 -23.96875 68.863281 -21.21875 73.90625 -19.21875 C 75.96875 -18.351562 77.1875 -17.664062 77.5625 -17.15625 C 78.488281 -16.144531 78.734375 -15.144531 78.296875 -14.15625 C 78.078125 -13.664062 77.304688 -12.347656 75.984375 -10.203125 C 74.660156 -8.066406 73.867188 -6.863281 73.609375 -6.59375 C 72.453125 -5.78125 69.328125 -7.050781 64.234375 -10.40625 C 58.734375 -13.96875 54 -18.582031 50.03125 -24.25 L 49.1875 -25.5 L 48.5625 -25 C 47.082031 -24.007812 44.617188 -22.65625 41.171875 -20.9375 C 34.253906 -17.582031 27.21875 -15.441406 20.0625 -14.515625 C 16.1875 -14.117188 13.703125 -13.992188 12.609375 -14.140625 C 12.304688 -14.179688 11.960938 -14.429688 11.578125 -14.890625 C 11.203125 -15.359375 11.035156 -15.78125 11.078125 -16.15625 C 11.148438 -16.65625 11.394531 -17.0625 11.8125 -17.375 C 12.226562 -17.695312 13.1875 -18.210938 14.6875 -18.921875 C 24.769531 -23.429688 33.644531 -28.691406 41.3125 -34.703125 L 43.5625 -36.421875 L 43.15625 -36.8125 C 42.832031 -37.15625 42.59375 -37.597656 42.4375 -38.140625 C 42.144531 -38.785156 42.25 -41.015625 42.75 -44.828125 L 43.5 -50.5625 L 42.9375 -50.625 C 41.03125 -50.875 37.4375 -50.75 32.15625 -50.25 L 30.34375 -50.15625 L 29.5 -44.65625 L 28.796875 -39.265625 L 28.125 -38.328125 C 27.675781 -37.796875 27.132812 -37.382812 26.5 -37.09375 C 25.800781 -36.882812 24.363281 -36.921875 22.1875 -37.203125 C 20.019531 -37.484375 18.660156 -37.828125 18.109375 -38.234375 C 17.566406 -38.648438 17.117188 -39.144531 16.765625 -39.71875 L 16.421875 -40.65625 L 17.453125 -49.265625 C 18.066406 -53.960938 18.472656 -56.804688 18.671875 -57.796875 C 18.878906 -58.785156 19.28125 -59.535156 19.875 -60.046875 C 20.46875 -60.648438 21.070312 -61 21.6875 -61.09375 C 22.300781 -61.195312 23.5625 -61.125 25.46875 -60.875 C 27.53125 -60.601562 28.832031 -60.285156 29.375 -59.921875 C 30.34375 -59.265625 30.941406 -58.398438 31.171875 -57.328125 C 31.171875 -56.804688 31.207031 -56.539062 31.28125 -56.53125 C 31.425781 -56.507812 32.445312 -56.597656 34.34375 -56.796875 C 36.226562 -56.859375 38.289062 -56.921875 40.53125 -56.984375 C 42.84375 -56.910156 44.078125 -56.90625 44.234375 -56.96875 C 44.304688 -56.957031 44.441406 -57.722656 44.640625 -59.265625 L 44.9375 -61.46875 L 38.546875 -62.296875 C 34.140625 -62.878906 31.660156 -63.316406 31.109375 -63.609375 C 30.617188 -63.972656 30.289062 -64.351562 30.125 -64.75 C 29.882812 -65.15625 29.75 -65.695312 29.71875 -66.375 C 29.695312 -67.050781 29.789062 -67.597656 30 -68.015625 C 30.332031 -68.929688 31.082031 -69.539062 32.25 -69.84375 Z M 32.25 -69.84375 "/></g></g></g><g fill="#000000" fill-opacity="1"><g transform="translate(794.866152, 296.94557)"><g><path d="M 83.953125 -2.015625 C 83.617188 -2.410156 82.570312 -2.992188 80.8125 -3.765625 C 78.78125 -4.648438 76.703125 -5.429688 74.578125 -6.109375 C 73.191406 -6.460938 72.460938 -6.65625 72.390625 -6.6875 C 72.265625 -6.75 71.519531 -5.222656 70.15625 -2.109375 L 68.109375 2.578125 L 74 5.15625 C 78.070312 6.9375 80.28125 7.738281 80.625 7.5625 C 80.90625 7.4375 81.144531 7.238281 81.34375 6.96875 C 81.550781 6.695312 82.054688 5.644531 82.859375 3.8125 C 83.804688 1.644531 84.328125 0.257812 84.421875 -0.34375 C 84.523438 -0.957031 84.367188 -1.515625 83.953125 -2.015625 Z M 71.65625 -32.734375 L 72.84375 -32.953125 L 89.84375 -25.53125 L 106.90625 -17.953125 L 107.296875 -17.171875 C 107.878906 -16.109375 107.925781 -15.015625 107.4375 -13.890625 C 106.945312 -12.773438 106.09375 -12.117188 104.875 -11.921875 L 103.984375 -11.828125 L 91.4375 -17.1875 L 79.109375 -22.578125 L 76.921875 -17.578125 C 75.492188 -14.328125 74.84375 -12.671875 74.96875 -12.609375 C 75.039062 -12.578125 75.363281 -12.476562 75.9375 -12.3125 C 78.21875 -11.957031 81.570312 -10.9375 86 -9.25 C 91.789062 -7.132812 95.335938 -4.976562 96.640625 -2.78125 C 97.378906 -1.5 97.691406 -0.078125 97.578125 1.484375 C 97.554688 2.441406 96.625 5.03125 94.78125 9.25 C 93.269531 12.707031 92.273438 14.796875 91.796875 15.515625 C 91.316406 16.242188 90.691406 16.847656 89.921875 17.328125 C 89.503906 17.546875 88.820312 17.671875 87.875 17.703125 C 86.925781 17.734375 86.054688 17.65625 85.265625 17.46875 C 84.453125 17.28125 80.921875 15.820312 74.671875 13.09375 L 65.3125 9 L 63.484375 13.171875 C 62.273438 15.953125 61.703125 17.441406 61.765625 17.640625 C 61.835938 17.835938 65.953125 19.71875 74.109375 23.28125 C 82.179688 26.8125 86.398438 28.8125 86.765625 29.28125 C 87.578125 30.039062 87.929688 30.941406 87.828125 31.984375 C 87.734375 33.035156 87.238281 33.929688 86.34375 34.671875 C 85.488281 35.347656 84.523438 35.613281 83.453125 35.46875 C 82.847656 35.363281 77.421875 33.078125 67.171875 28.609375 C 66.628906 28.367188 65.863281 27.988281 64.875 27.46875 C 57.957031 24.445312 53.867188 22.601562 52.609375 21.9375 C 51.359375 21.28125 50.484375 20.519531 49.984375 19.65625 C 49.878906 19.519531 49.8125 19.40625 49.78125 19.3125 C 48.9375 17.894531 48.59375 16.453125 48.75 14.984375 C 48.769531 14.191406 52.0625 6.289062 58.625 -8.71875 L 68.390625 -31.109375 L 69.453125 -31.875 C 70.054688 -32.332031 70.789062 -32.617188 71.65625 -32.734375 Z M 50.859375 -34.296875 C 50.816406 -34.554688 50.335938 -34.929688 49.421875 -35.421875 C 48.804688 -35.691406 47.832031 -36.015625 46.5 -36.390625 C 45.164062 -36.765625 44.320312 -36.988281 43.96875 -37.0625 L 43.359375 -37.09375 L 41.40625 -32.375 C 40.070312 -29.3125 39.460938 -27.628906 39.578125 -27.328125 C 39.703125 -27.046875 40.816406 -26.441406 42.921875 -25.515625 C 45.023438 -24.597656 46.203125 -24.164062 46.453125 -24.21875 C 46.984375 -24.46875 47.941406 -26.269531 49.328125 -29.625 C 50.492188 -32.507812 51.003906 -34.066406 50.859375 -34.296875 Z M 37.390625 -48.4375 C 38.023438 -48.394531 39.257812 -47.972656 41.09375 -47.171875 C 42.925781 -46.367188 44.03125 -45.84375 44.40625 -45.59375 C 44.6875 -45.320312 44.960938 -44.941406 45.234375 -44.453125 C 45.515625 -43.972656 45.628906 -43.578125 45.578125 -43.265625 C 45.585938 -43.109375 46.234375 -42.914062 47.515625 -42.6875 C 50.546875 -42.082031 53.554688 -41.128906 56.546875 -39.828125 C 59.335938 -38.609375 61.222656 -37.375 62.203125 -36.125 C 63.265625 -34.851562 63.789062 -33.367188 63.78125 -31.671875 C 63.65625 -30.847656 62.640625 -28.144531 60.734375 -23.5625 C 58.753906 -19.007812 57.507812 -16.441406 57 -15.859375 C 55.5625 -14.046875 53.238281 -13.722656 50.03125 -14.890625 L 48.671875 -15.359375 L 47.734375 -13.21875 L 46.890625 -11.28125 L 49.28125 -10.125 C 50.945312 -9.3125 51.992188 -8.65625 52.421875 -8.15625 C 53.179688 -7.09375 53.320312 -6.019531 52.84375 -4.9375 C 52.550781 -4.257812 52.03125 -3.71875 51.28125 -3.3125 C 50.539062 -2.90625 49.785156 -2.75 49.015625 -2.84375 C 48.472656 -2.914062 47.523438 -3.25 46.171875 -3.84375 L 44.03125 -4.765625 L 42.875 -2.125 L 41.71875 0.53125 L 45.0625 1.484375 C 47.414062 2.035156 48.726562 2.453125 49 2.734375 C 49.96875 3.304688 50.257812 4.035156 49.875 4.921875 C 49.664062 5.390625 49.375 5.722656 49 5.921875 C 48.625 6.128906 47.9375 6.378906 46.9375 6.671875 C 40.675781 8.378906 33.328125 8.722656 24.890625 7.703125 C 22.421875 7.441406 19.691406 6.976562 16.703125 6.3125 C 13.710938 5.65625 11.976562 5.144531 11.5 4.78125 C 10.632812 4.15625 10.171875 3.550781 10.109375 2.96875 C 9.992188 2.664062 10.265625 1.203125 10.921875 -1.421875 C 11.492188 -3.660156 11.90625 -5.066406 12.15625 -5.640625 C 12.414062 -6.222656 12.953125 -6.703125 13.765625 -7.078125 C 14.640625 -7.421875 15.550781 -7.46875 16.5 -7.21875 L 17.546875 -6.890625 L 20.5625 -13.453125 L 23.546875 -20.03125 L 24.375 -20.53125 C 25.007812 -20.882812 25.601562 -21.003906 26.15625 -20.890625 C 26.71875 -20.773438 27.742188 -20.390625 29.234375 -19.734375 C 30.703125 -19.003906 31.617188 -18.5 31.984375 -18.21875 C 32.347656 -17.945312 32.582031 -17.378906 32.6875 -16.515625 C 32.84375 -16.128906 32.804688 -15.640625 32.578125 -15.046875 C 32.359375 -14.460938 31.613281 -12.707031 30.34375 -9.78125 L 27.765625 -3.890625 L 28.578125 -3.53125 C 29.191406 -3.269531 29.550781 -3.15625 29.65625 -3.1875 C 29.863281 -3.320312 31.195312 -6.210938 33.65625 -11.859375 L 37.21875 -20.25 L 33.796875 -21.859375 C 31.585938 -22.910156 30.097656 -23.765625 29.328125 -24.421875 C 27.484375 -26.117188 26.664062 -28.128906 26.875 -30.453125 C 26.851562 -30.960938 27.96875 -33.789062 30.21875 -38.9375 L 33.640625 -46.796875 L 34.46875 -47.265625 C 35.363281 -48.003906 36.335938 -48.394531 37.390625 -48.4375 Z M 37.390625 -48.4375 "/></g></g></g><g fill="#000000" fill-opacity="1"><g transform="translate(882.31508, 333.384879)"><g><path d="M 101.6875 9.21875 C 103.59375 10.414062 104.554688 12.113281 104.578125 14.3125 C 104.609375 16.519531 103.691406 18.285156 101.828125 19.609375 C 99.859375 20.921875 97.84375 21.085938 95.78125 20.109375 C 93.726562 19.128906 92.613281 17.46875 92.4375 15.125 C 92.289062 13.613281 92.707031 12.222656 93.6875 10.953125 C 94.664062 9.691406 95.914062 8.867188 97.4375 8.484375 C 98.957031 8.109375 100.375 8.351562 101.6875 9.21875 Z M 33.359375 26.375 C 33.710938 26.207031 33.972656 26.023438 34.140625 25.828125 C 34.316406 25.628906 33.953125 25.425781 33.046875 25.21875 C 32.140625 25.007812 31.441406 24.789062 30.953125 24.5625 L 30.234375 24.1875 L 30.4375 24.96875 C 30.8125 26 31.414062 26.539062 32.25 26.59375 C 32.625 26.632812 32.992188 26.5625 33.359375 26.375 Z M 64.71875 43.109375 L 67.171875 40.375 L 65.25 38.671875 L 63.25 36.890625 L 60.796875 39.625 L 58.359375 42.375 L 60.359375 44.15625 L 62.28125 45.859375 Z M 41.09375 14.515625 C 40.28125 13.304688 39.109375 12.21875 37.578125 11.25 C 37.296875 11 37.039062 10.921875 36.8125 11.015625 C 36.582031 11.109375 36.0625 11.382812 35.25 11.84375 C 34.332031 12.332031 33.410156 12.757812 32.484375 13.125 C 31.722656 13.539062 31.320312 13.773438 31.28125 13.828125 C 31.21875 13.890625 31.351562 14.066406 31.6875 14.359375 C 32.019531 14.648438 32.394531 14.953125 32.8125 15.265625 C 33.238281 15.585938 33.5 15.742188 33.59375 15.734375 C 33.644531 15.785156 33.832031 15.460938 34.15625 14.765625 C 34.914062 13.347656 35.613281 12.671875 36.25 12.734375 C 36.519531 12.773438 36.796875 12.921875 37.078125 13.171875 C 37.398438 13.460938 37.664062 14.300781 37.875 15.6875 C 38.09375 17.070312 38.160156 18.414062 38.078125 19.71875 L 37.9375 21.546875 L 39.421875 19.890625 C 40.503906 18.671875 41.164062 17.671875 41.40625 16.890625 C 41.644531 16.117188 41.539062 15.328125 41.09375 14.515625 Z M 73.359375 33.40625 L 75.28125 31.234375 L 73.359375 29.53125 L 71.359375 27.75 L 69.4375 29.921875 L 67.59375 32 L 69.59375 33.78125 L 71.515625 35.484375 Z M 82.078125 23.609375 L 84 21.4375 L 82.078125 19.734375 L 80.078125 17.953125 L 78 20.28125 L 75.9375 22.609375 L 78.015625 24.296875 C 79.335938 25.378906 80.050781 25.867188 80.15625 25.765625 Z M 67.734375 -30.1875 C 69.234375 -29.539062 70.289062 -28.453125 70.90625 -26.921875 C 71.53125 -25.378906 71.503906 -23.835938 70.828125 -22.296875 C 70.160156 -20.765625 69.03125 -19.660156 67.4375 -18.984375 C 66.570312 -18.566406 65.828125 -18.394531 65.203125 -18.46875 L 64.09375 -18.5625 L 70.40625 -12.953125 C 74.664062 -9.160156 76.9375 -7.039062 77.21875 -6.59375 C 77.738281 -5.625 77.851562 -4.628906 77.5625 -3.609375 C 77.375 -3.179688 77.046875 -2.726562 76.578125 -2.25 C 76.109375 -1.78125 75.613281 -1.472656 75.09375 -1.328125 C 74.519531 -1.253906 73.96875 -1.300781 73.4375 -1.46875 C 72.90625 -1.65625 70.78125 -3.398438 67.0625 -6.703125 C 65.519531 -8.078125 64.207031 -9.242188 63.125 -10.203125 C 62.050781 -11.160156 61.488281 -11.609375 61.4375 -11.546875 C 61.34375 -11.441406 61.398438 -10.894531 61.609375 -9.90625 C 61.804688 -8.238281 61.65625 -7.128906 61.15625 -6.578125 C 60.71875 -6.078125 59.640625 -5.753906 57.921875 -5.609375 L 55.953125 -5.5625 L 56.078125 -4.875 C 56.441406 -3.164062 56.53125 -2.039062 56.34375 -1.5 C 56.070312 -0.851562 54.972656 -0.445312 53.046875 -0.28125 C 51.578125 -0.09375 50.90625 0.101562 51.03125 0.3125 C 50.976562 0.375 51.003906 0.453125 51.109375 0.546875 C 51.273438 0.691406 51.691406 1.0625 52.359375 1.65625 C 53.128906 2.226562 53.710938 2.398438 54.109375 2.171875 C 54.515625 1.941406 55.53125 0.910156 57.15625 -0.921875 C 58.976562 -2.960938 60.175781 -4.082031 60.75 -4.28125 C 61.976562 -4.875 63.109375 -4.863281 64.140625 -4.25 C 64.835938 -3.90625 65.753906 -3.175781 66.890625 -2.0625 C 68.023438 -0.957031 68.6875 -0.203125 68.875 0.203125 C 69.0625 0.609375 69.132812 1.140625 69.09375 1.796875 C 69.0625 2.460938 68.972656 2.929688 68.828125 3.203125 C 68.679688 3.472656 67.378906 4.988281 64.921875 7.75 C 62.453125 10.519531 61.21875 11.90625 61.21875 11.90625 C 61.332031 12.007812 64.148438 10.40625 69.671875 7.09375 C 74.441406 4.300781 79.023438 1.328125 83.421875 -1.828125 C 85.222656 -3.203125 86.710938 -3.65625 87.890625 -3.1875 C 88.535156 -3.019531 89.054688 -2.632812 89.453125 -2.03125 C 89.859375 -1.425781 90.535156 -0.207031 91.484375 1.625 C 92.785156 4.070312 93.441406 5.453125 93.453125 5.765625 C 93.816406 6.578125 93.628906 7.398438 92.890625 8.234375 C 92.003906 9.234375 89.742188 10.445312 86.109375 11.875 L 84.34375 12.671875 L 102.4375 28.765625 L 102.8125 29.859375 C 103.207031 31.097656 102.972656 32.203125 102.109375 33.171875 C 101.242188 34.140625 100.203125 34.472656 98.984375 34.171875 C 98.285156 33.941406 97.191406 33.164062 95.703125 31.84375 L 93.453125 29.84375 L 91.375 32.171875 L 89.390625 34.40625 L 90.796875 35.671875 C 91.972656 36.703125 92.738281 37.597656 93.09375 38.359375 C 93.445312 39.128906 93.488281 39.890625 93.21875 40.640625 C 92.71875 41.984375 91.710938 42.726562 90.203125 42.875 C 89.046875 42.9375 87.722656 42.300781 86.234375 40.96875 L 84.734375 39.640625 L 82.8125 41.8125 L 80.96875 43.890625 L 82.640625 45.375 C 84.078125 46.65625 84.800781 47.796875 84.8125 48.796875 C 84.9375 50.296875 84.335938 51.296875 83.015625 51.796875 C 82.140625 52.117188 81.382812 52.164062 80.75 51.9375 C 80.113281 51.707031 79.238281 51.097656 78.125 50.109375 L 76.625 48.78125 L 74.171875 51.515625 L 71.734375 54.265625 L 73.984375 56.265625 C 75.148438 57.296875 75.90625 58.085938 76.25 58.640625 C 76.601562 59.203125 76.800781 59.84375 76.84375 60.5625 C 76.789062 61.519531 76.363281 62.285156 75.5625 62.859375 C 74.757812 63.429688 73.898438 63.613281 72.984375 63.40625 C 72.503906 63.28125 71.820312 62.847656 70.9375 62.109375 C 70.0625 61.367188 67.4375 59.054688 63.0625 55.171875 L 54.09375 47.1875 L 52.96875 48.296875 C 52.28125 49.066406 51.71875 49.53125 51.28125 49.6875 C 50.851562 49.851562 50.269531 49.953125 49.53125 49.984375 C 48.800781 50.023438 48.269531 49.945312 47.9375 49.75 C 47.675781 49.613281 46.785156 48.867188 45.265625 47.515625 C 43.742188 46.160156 42.8125 45.285156 42.46875 44.890625 C 42.226562 44.472656 42.0625 43.90625 41.96875 43.1875 C 41.875 42.46875 41.867188 41.890625 41.953125 41.453125 C 42.128906 41.023438 45.875 36.695312 53.1875 28.46875 C 60.5 20.25 64.15625 16.140625 64.15625 16.140625 C 64.101562 16.085938 63.675781 16.007812 62.875 15.90625 C 61.25 15.738281 60.347656 15.082031 60.171875 13.9375 C 60.085938 13.46875 60.117188 13.148438 60.265625 12.984375 C 60.554688 12.648438 60.421875 12.53125 59.859375 12.625 C 59.804688 12.6875 59.703125 12.742188 59.546875 12.796875 C 59.191406 12.960938 58.601562 13.054688 57.78125 13.078125 C 56.96875 13.109375 56.296875 12.984375 55.765625 12.703125 C 55.171875 12.484375 53.441406 11.140625 50.578125 8.671875 L 46.09375 4.859375 L 44.8125 5.796875 C 43.488281 6.597656 42.9375 7.097656 43.15625 7.296875 C 43.21875 7.347656 43.300781 7.425781 43.40625 7.53125 C 43.75 7.707031 44.96875 8.707031 47.0625 10.53125 C 49.164062 12.351562 50.472656 13.644531 50.984375 14.40625 C 53.160156 17.425781 53.550781 20.445312 52.15625 23.46875 C 51.71875 24.164062 49.550781 26.65625 45.65625 30.9375 C 42.757812 34.195312 41.015625 36.128906 40.421875 36.734375 C 39.828125 37.347656 39.25 37.804688 38.6875 38.109375 C 35.675781 39.703125 32.601562 39.25 29.46875 36.75 C 28.144531 35.675781 27.234375 34.640625 26.734375 33.640625 C 26.234375 32.648438 25.96875 31.453125 25.9375 30.046875 C 25.882812 28.304688 26.222656 26.773438 26.953125 25.453125 C 27.691406 24.128906 28.488281 23.546875 29.34375 23.703125 L 29.984375 23.984375 L 29.625 23.375 C 29.332031 22.800781 29.453125 22.113281 29.984375 21.3125 C 30.117188 20.925781 30.160156 20.710938 30.109375 20.671875 C 26.222656 19.785156 23.03125 18.578125 20.53125 17.046875 C 19.71875 16.628906 19.226562 16.175781 19.0625 15.6875 C 18.894531 15.195312 18.832031 14.816406 18.875 14.546875 C 18.914062 14.285156 19.4375 13.3125 20.4375 11.625 C 21.457031 10.144531 22.160156 9.1875 22.546875 8.75 C 22.859375 8.625 23.25 8.546875 23.71875 8.515625 C 24.195312 8.492188 24.546875 8.582031 24.765625 8.78125 C 24.929688 8.925781 25.128906 8.925781 25.359375 8.78125 C 25.585938 8.632812 26.222656 8.132812 27.265625 7.28125 C 28.265625 6.382812 28.742188 5.847656 28.703125 5.671875 C 28.671875 5.492188 28.144531 5.144531 27.125 4.625 L 26.03125 3.984375 L 19.46875 11.21875 L 12.8125 18.53125 L 11.890625 18.75 C 11.003906 18.851562 10.3125 18.757812 9.8125 18.46875 C 9.320312 18.1875 8.332031 17.378906 6.84375 16.046875 C 5.507812 14.859375 4.726562 14.140625 4.5 13.890625 C 4.28125 13.648438 4.132812 13.300781 4.0625 12.84375 C 4.113281 12.78125 4.101562 12.671875 4.03125 12.515625 C 3.894531 11.796875 4.113281 11.019531 4.6875 10.1875 C 5.269531 9.363281 7.460938 6.820312 11.265625 2.5625 C 11.847656 1.894531 12.289062 1.394531 12.59375 1.0625 L 21.0625 -8.46875 L 22.0625 -8.765625 C 22.988281 -9.140625 23.992188 -9.09375 25.078125 -8.625 C 25.515625 -8.457031 26.363281 -7.832031 27.625 -6.75 C 28.894531 -5.664062 29.703125 -4.867188 30.046875 -4.359375 C 30.515625 -3.441406 30.648438 -2.53125 30.453125 -1.625 C 30.316406 -1.144531 30.410156 -0.859375 30.734375 -0.765625 C 31.046875 -0.691406 31.695312 -0.367188 32.6875 0.203125 L 34.140625 1.0625 L 35.265625 -0.03125 C 35.421875 -0.0820312 35.644531 -0.25 35.9375 -0.53125 C 36.226562 -0.8125 36.472656 -1.0625 36.671875 -1.28125 C 36.867188 -1.5 37.050781 -1.644531 37.21875 -1.71875 L 37.953125 -2.546875 L 33.96875 -6.078125 C 32.070312 -7.859375 30.914062 -8.960938 30.5 -9.390625 C 30.09375 -9.816406 29.765625 -10.285156 29.515625 -10.796875 C 28.898438 -12.210938 28.796875 -13.59375 29.203125 -14.9375 L 29.515625 -16.140625 L 33.5 -20.625 L 37.5625 -25.1875 L 38.40625 -25.46875 C 39.238281 -25.625 39.921875 -25.582031 40.453125 -25.34375 C 40.992188 -25.113281 41.875 -24.515625 43.09375 -23.546875 C 44.3125 -22.460938 45.101562 -21.65625 45.46875 -21.125 C 45.84375 -20.601562 46.03125 -19.941406 46.03125 -19.140625 L 46.171875 -17.984375 L 43.21875 -14.671875 C 41.300781 -12.503906 40.25 -11.203125 40.0625 -10.765625 C 39.820312 -10.285156 39.882812 -9.804688 40.25 -9.328125 C 40.625 -8.847656 41.8125 -7.722656 43.8125 -5.953125 L 43.890625 -5.875 L 43.96875 -5.8125 L 44.046875 -5.734375 L 44.140625 -5.671875 L 44.234375 -5.578125 L 44.3125 -5.515625 L 44.46875 -5.359375 L 44.546875 -5.296875 L 49.265625 -1.40625 C 49.253906 -1.5 49.222656 -1.570312 49.171875 -1.625 L 49.171875 -1.78125 C 48.984375 -2.144531 48.828125 -2.976562 48.703125 -4.28125 L 48.359375 -6.21875 L 46.5625 -6.90625 C 43.738281 -7.851562 42.023438 -8.597656 41.421875 -9.140625 C 41.304688 -9.234375 41.234375 -9.507812 41.203125 -9.96875 C 41.179688 -10.4375 41.242188 -10.753906 41.390625 -10.921875 C 41.734375 -11.316406 43 -11.628906 45.1875 -11.859375 C 46.914062 -12.015625 47.816406 -12.128906 47.890625 -12.203125 C 47.960938 -12.285156 47.898438 -13.113281 47.703125 -14.6875 C 47.734375 -15.050781 47.707031 -15.660156 47.625 -16.515625 C 47.550781 -17.378906 47.535156 -17.894531 47.578125 -18.0625 C 47.472656 -19.039062 47.800781 -19.742188 48.5625 -20.171875 C 48.757812 -20.285156 49.070312 -20.273438 49.5 -20.140625 C 49.925781 -20.015625 50.226562 -19.820312 50.40625 -19.5625 C 50.75 -19.0625 51.296875 -18.175781 52.046875 -16.90625 C 52.804688 -15.644531 53.285156 -14.78125 53.484375 -14.3125 L 53.671875 -13.546875 L 55.859375 -13.984375 C 57.253906 -14.328125 57.976562 -14.523438 58.03125 -14.578125 C 58.082031 -14.640625 55.285156 -17.179688 49.640625 -22.203125 C 45.367188 -25.992188 42.851562 -28.242188 42.09375 -28.953125 C 41.34375 -29.671875 40.957031 -30.191406 40.9375 -30.515625 C 40.863281 -31.078125 40.835938 -31.539062 40.859375 -31.90625 C 40.890625 -32.28125 41.113281 -32.753906 41.53125 -33.328125 C 41.945312 -33.910156 42.382812 -34.296875 42.84375 -34.484375 C 43.757812 -34.953125 44.753906 -34.957031 45.828125 -34.5 C 46.316406 -34.257812 48.695312 -32.242188 52.96875 -28.453125 L 59.359375 -22.78125 L 59.21875 -23.78125 C 58.957031 -25.5 59.414062 -27.078125 60.59375 -28.515625 C 61.175781 -29.285156 61.742188 -29.8125 62.296875 -30.09375 C 64.140625 -31.039062 65.953125 -31.070312 67.734375 -30.1875 Z M 67.734375 -30.1875 "/></g></g></g></svg>