<svg xmlns="http://www.w3.org/2000/svg" xmlns:xlink="http://www.w3.org/1999/xlink" width="1920" zoomAndPan="magnify" viewBox="0 0 1440 809.999993" height="1080" preserveAspectRatio="xMidYMid meet" version="1.0"><defs><clipPath id="02efb6c73c"><path d="M 30.589844 241 L 115 241 L 115 634 L 30.589844 634 Z M 30.589844 241 " clip-rule="nonzero"/></clipPath><clipPath id="2a6dcf96f6"><path d="M 1325 241 L 1408.789062 241 L 1408.789062 634 L 1325 634 Z M 1325 241 " clip-rule="nonzero"/></clipPath></defs><path fill="#000000" d="M 206.21875 283.28125 L 151.542969 283.28125 L 151.542969 591.070312 L 197.886719 591.070312 C 218.546875 591.070312 238.011719 599.066406 252.671875 613.59375 L 278.863281 639.53125 C 305.535156 665.953125 340.90625 680.503906 378.460938 680.503906 L 757.277344 680.503906 C 771.765625 680.503906 783.550781 668.738281 783.550781 654.269531 C 783.550781 639.804688 771.765625 628.035156 757.277344 628.035156 L 550.203125 628.035156 C 539.96875 628.035156 531.6875 619.769531 531.6875 609.550781 C 531.6875 599.335938 539.96875 591.070312 550.203125 591.070312 L 863.070312 591.070312 C 880.882812 591.070312 895.371094 576.601562 895.371094 558.820312 C 895.371094 541.039062 880.882812 526.574219 863.070312 526.574219 L 584.957031 526.574219 C 574.726562 526.574219 566.445312 518.304688 566.445312 508.089844 C 566.445312 497.875 574.726562 489.605469 584.957031 489.605469 L 920.574219 489.605469 C 945.011719 489.605469 964.894531 469.753906 964.894531 445.34375 C 964.894531 420.933594 945.011719 401.082031 920.574219 401.082031 L 574.257812 401.082031 C 564.023438 401.082031 555.742188 392.8125 555.742188 382.597656 C 555.742188 372.382812 564.023438 364.113281 574.257812 364.113281 L 856.382812 364.113281 C 877.871094 364.113281 895.359375 346.652344 895.359375 325.1875 C 895.359375 303.734375 877.871094 286.273438 856.382812 286.273438 L 531.886719 286.273438 C 513.78125 286.273438 497.871094 275.382812 491.355469 258.511719 C 484.863281 241.667969 489.304688 222.914062 502.710938 210.773438 L 580.796875 140.09375 C 587.636719 133.90625 591.597656 125.417969 591.929688 116.214844 C 592.3125 106.910156 588.957031 98.257812 582.585938 91.582031 C 572.121094 80.601562 555.484375 77.878906 542.140625 84.953125 C 477.199219 119.390625 275.097656 252.3125 257.792969 263.699219 C 243.578125 276.355469 225.308594 283.28125 206.21875 283.28125 Z M 206.21875 283.28125 " fill-opacity="1" fill-rule="nonzero"/><g clip-path="url(#02efb6c73c)"><path fill="#000000" d="M 114.515625 609.550781 L 114.515625 263.183594 C 114.515625 251.082031 104.65625 241.222656 92.523438 241.222656 L 51.671875 241.222656 C 39.550781 241.222656 29.675781 251.070312 29.675781 263.183594 L 29.675781 611.15625 C 29.675781 623.265625 39.539062 633.113281 51.671875 633.113281 L 92.523438 633.113281 C 104.65625 633.113281 114.515625 623.265625 114.515625 611.15625 Z M 114.515625 609.550781 " fill-opacity="1" fill-rule="nonzero"/></g><path fill="#000000" d="M 1233.765625 283.28125 L 1288.441406 283.28125 L 1288.441406 591.070312 L 1242.097656 591.070312 C 1221.4375 591.070312 1201.972656 599.066406 1187.3125 613.59375 L 1161.121094 639.53125 C 1134.449219 665.953125 1099.078125 680.503906 1061.523438 680.503906 L 682.707031 680.503906 C 668.21875 680.503906 656.433594 668.738281 656.433594 654.269531 C 656.433594 639.804688 668.21875 628.035156 682.707031 628.035156 L 889.78125 628.035156 C 900.015625 628.035156 908.296875 619.769531 908.296875 609.550781 C 908.296875 599.335938 900.015625 591.070312 889.78125 591.070312 L 576.914062 591.070312 C 559.101562 591.070312 544.613281 576.601562 544.613281 558.820312 C 544.613281 541.039062 559.101562 526.574219 576.914062 526.574219 L 855.027344 526.574219 C 865.257812 526.574219 873.539062 518.304688 873.539062 508.089844 C 873.539062 497.875 865.257812 489.605469 855.027344 489.605469 L 519.410156 489.605469 C 494.972656 489.605469 475.089844 469.753906 475.089844 445.34375 C 475.089844 420.933594 494.972656 401.082031 519.410156 401.082031 L 865.726562 401.082031 C 875.960938 401.082031 884.242188 392.8125 884.242188 382.597656 C 884.242188 372.382812 875.960938 364.113281 865.726562 364.113281 L 583.601562 364.113281 C 562.113281 364.113281 544.625 346.652344 544.625 325.1875 C 544.625 303.734375 562.113281 286.273438 583.601562 286.273438 L 908.097656 286.273438 C 926.203125 286.273438 942.113281 275.382812 948.628906 258.511719 C 955.121094 241.667969 950.679688 222.914062 937.273438 210.773438 L 859.1875 140.09375 C 852.347656 133.90625 848.386719 125.417969 848.054688 116.214844 C 847.671875 106.910156 851.027344 98.257812 857.398438 91.582031 C 867.863281 80.601562 884.5 77.878906 897.839844 84.953125 C 962.785156 119.390625 1164.886719 252.3125 1182.191406 263.699219 C 1196.40625 276.355469 1214.671875 283.28125 1233.765625 283.28125 Z M 1233.765625 283.28125 " fill-opacity="1" fill-rule="nonzero"/><g clip-path="url(#2a6dcf96f6)"><path fill="#000000" d="M 1325.46875 609.550781 L 1325.46875 263.183594 C 1325.46875 251.082031 1335.328125 241.222656 1347.460938 241.222656 L 1388.3125 241.222656 C 1400.433594 241.222656 1410.308594 251.070312 1410.308594 263.183594 L 1410.308594 611.15625 C 1410.308594 623.265625 1400.445312 633.113281 1388.3125 633.113281 L 1347.460938 633.113281 C 1335.328125 633.113281 1325.46875 623.265625 1325.46875 611.15625 Z M 1325.46875 609.550781 " fill-opacity="1" fill-rule="nonzero"/></g></svg>